<svg width="100" height="100" version="1.1" xmlns="http://www.w3.org/2000/svg"><g id="Page-1" stroke="none" stroke-width="1" fill="none" fill-rule="evenodd"><g id="24hrs" fill="#ED1C24" fill-rule="nonzero"><path d="M58.062 43.441c0-8.246-6.246-15-14.149-15.714V16.17c0-.715-.573-1.299-1.274-1.299-.702 0-1.275.585-1.275 1.299v25.195c-.637.454-1.084 1.169-1.084 2.013v.194l-9.687 7.468h-.064l-9.815 7.597c-.574.455-.701 1.234-.255 1.819.255.324.637.519 1.02.519.255 0 .51-.065.765-.26l8.859-6.818c2.931 3.377 7.074 5.26 11.536 5.26 8.476 0 15.423-7.078 15.423-15.715zM42.64 56.558c-3.633 0-7.011-1.493-9.497-4.22l8.668-6.689c.255.065.51.13.829.13 1.274 0 2.358-1.104 2.358-2.402 0-.845-.446-1.624-1.084-2.013v-11.04c6.501.65 11.6 6.3 11.6 13.053 0 7.272-5.8 13.181-12.874 13.181z" id="Shape"/><path d="M84.321 52.468c.638-2.988.956-6.04.956-9.091C85.213 19.48 66.093 0 42.64 0 19.12 0 0 19.48 0 43.442c0 23.96 19.12 43.441 42.639 43.441 3.824 0 7.584-.52 11.217-1.558C57.553 93.96 66.093 100 75.908 100 89.165 100 100 89.026 100 75.454c0-10.519-6.565-19.48-15.679-22.986zM43.913 84.22v-4.35c0-.715-.573-1.3-1.274-1.3-.702 0-1.275.585-1.275 1.3v4.35C20.268 83.57 3.25 66.234 2.614 44.74h4.27c.7 0 1.274-.585 1.274-1.3 0-.714-.574-1.298-1.275-1.298h-4.27c.637-21.494 17.655-38.831 38.75-39.48v4.35c0 .714.575 1.299 1.276 1.299.7 0 1.274-.585 1.274-1.299v-4.35c21.097.649 38.114 17.986 38.751 39.48h-4.27c-.701 0-1.275.584-1.275 1.299 0 .714.574 1.298 1.275 1.298h4.27a37.603 37.603 0 01-.828 7.013 22.51 22.51 0 00-5.928-.779c-13.257 0-24.092 10.974-24.092 24.545 0 2.598.383 5.065 1.148 7.403-2.996.714-5.991 1.169-9.05 1.299zm31.995 13.182c-11.855 0-21.542-9.87-21.542-21.949 0-12.077 9.688-21.947 21.542-21.947 11.855 0 21.543 9.87 21.543 21.947 0 12.079-9.688 21.949-21.543 21.949z" id="Shape"/><path d="M64.5 68.507c-1.084.064-2.104.649-2.868 1.558-.701.909-1.02 2.078-.829 3.182.064.52.574.909 1.084.779.51-.065.892-.584.764-1.104-.063-.52.064-1.169.446-1.623a2.16 2.16 0 011.466-.844c.51-.065 1.084.194 1.53.649.446.454.701 1.039.637 1.558-.127 1.559-1.338 2.533-2.804 3.702-1.785 1.363-3.76 2.922-3.378 5.844a.972.972 0 00.956.844h5.991c.51 0 .956-.455.956-.974 0-.52-.446-.974-.956-.974H62.46c.191-1.169 1.147-2.013 2.613-3.182 1.594-1.234 3.378-2.662 3.57-5.13.063-1.104-.383-2.208-1.212-3.052-.764-.844-1.848-1.298-2.931-1.233zm12.81-.585h-2.23c-.383 0-.701.195-.893.52l-3.505 7.467c-.064.13-.064.26-.064.455v1.948c0 .52.446.974.956.974h2.55c.51 0 .956-.455.956-.974 0-.52-.447-.974-.956-.974H72.53v-.715l3.187-6.688h.701v12.208c0 .52.446.974.956.974s.956-.455.956-.974V68.96c-.064-.65-.51-1.039-1.02-1.039zm10.007 4.74a3.53 3.53 0 00-1.976.585v-4.35c0-.52-.446-.975-.956-.975s-.956.455-.956.974v13.182c0 .52.446.974.956.974s.956-.455.956-.974v-5.39c0-1.104.892-2.013 1.976-2.013 1.083 0 1.976.91 1.976 2.013v5.39c0 .52.446.974.956.974s.956-.455.956-.974v-5.39c0-2.207-1.721-4.026-3.888-4.026z" id="Path"/></g></g></svg>