<svg width="125" height="65" viewBox="0 0 125 65" fill="none" xmlns="http://www.w3.org/2000/svg">
<path d="M62.5 0C27.9511 0 0 14.4906 0 32.269C0 50.0474 27.9511 64.538 62.5 64.538C97.049 64.538 125 50.0474 125 32.269C125 14.4906 97.049 0 62.5 0ZM105.206 47.2467C105.206 47.3685 105.206 47.4903 105.206 47.4903C105.206 49.3168 104.367 50.6563 101.727 50.6563C101.008 50.6563 100.408 50.5345 99.6881 50.4127C90.2111 55.04 77.0154 57.9625 62.5 57.9625C48.1046 57.9625 35.0288 55.1618 25.5518 50.5345L24.8321 50.1692H21.5931V48.3427C14.2754 43.9589 9.95681 38.3575 9.95681 32.269C9.95681 28.8595 11.3964 25.4499 13.9155 22.5274L15.595 13.3947H26.6315L26.7514 13.5165C35.9885 9.25451 48.5845 6.69734 62.5 6.69734C76.1756 6.69734 88.6516 9.25451 98.0086 13.3947H103.647C105.446 13.3947 107.845 13.3947 109.405 14.3688C111.324 15.5865 112.284 17.7784 112.284 19.9703C112.284 21.0662 112.164 22.1621 111.804 23.1363C114.203 26.0588 115.163 28.9812 115.163 32.269C115.163 37.8704 111.444 42.9848 105.206 47.2467Z" fill="white"/>
<path d="M38.8676 41.1582V42.6195C39.1075 42.7412 39.1075 42.863 39.1075 43.1065C39.1075 43.2283 39.1075 43.3501 39.1075 43.4719V45.0549L37.6679 41.28H34.7889V42.7412C35.0288 42.863 35.0288 42.9848 35.0288 43.2283C35.0288 43.3501 35.0288 43.4719 35.0288 43.5936V47.3685C35.0288 47.7338 35.0288 47.9773 34.7889 48.2209V49.6821H37.3081V48.8297C37.3081 48.708 37.3081 48.5862 37.3081 48.4644V48.2209C37.0681 47.9773 37.0681 47.7338 37.0681 47.3685V45.9073L38.6276 49.6821H41.1468V43.5936C41.1468 43.2283 41.1468 42.9848 41.3868 42.7412V41.28H38.8676V41.1582Z" fill="white"/>
<path d="M49.0643 47.4903L48.2246 45.9073L47.8647 45.0549L48.9443 43.2283C49.0643 42.9848 49.1843 42.863 49.5441 42.7412V41.28H46.6651V42.6195C46.6651 42.9848 46.6651 42.9848 46.1852 43.7154V43.8372L46.0653 43.9589L45.9453 44.2025L45.5854 44.6896V43.5936C45.5854 43.2283 45.5854 42.9848 45.8253 42.7412V41.28H42.7063V42.7412C42.9463 42.863 42.9463 42.9848 42.9463 43.2283C42.9463 43.3501 42.9463 43.4719 42.9463 43.5936V47.3685C42.9463 47.7338 42.9463 47.9773 42.7063 48.2209V49.6821H45.8253V48.8297C45.8253 48.708 45.8253 48.5862 45.8253 48.4644V48.2209C45.5854 47.9773 45.5854 47.7338 45.5854 47.3685V46.029L46.1852 47.3685C46.4251 47.9773 46.5451 48.0991 46.5451 48.708V49.6821H49.5441V48.2209C49.3042 47.9773 49.1843 47.8556 49.0643 47.4903Z" fill="white"/>
<path d="M60.8205 48.0991C60.5806 47.9773 60.5806 47.612 60.5806 47.3685V46.8814C60.5806 46.6379 60.5806 46.3943 60.4607 46.1508C60.3407 45.7855 59.9808 45.5419 59.501 45.4202C60.4607 45.1766 60.7006 44.3242 60.7006 43.4719C60.7006 43.4719 60.7006 43.4719 60.7006 43.3501C60.7006 42.6195 60.4607 41.8888 59.7409 41.5235C59.1411 41.1582 58.4213 41.1582 57.7015 41.1582H54.1027V42.6195C54.2226 42.7412 54.3426 42.863 54.3426 42.9848C54.3426 43.1065 54.3426 43.3501 54.3426 43.4719V47.3685C54.3426 47.7338 54.3426 47.9773 54.1027 48.2209V49.6821H57.2217V48.2209C56.9818 47.9773 56.9818 47.7338 56.9818 47.3685V46.3943H57.1017C57.8215 46.3943 57.9415 46.7596 57.9415 47.3685C57.9415 47.4903 57.9415 47.4903 57.9415 47.612C57.9415 48.8297 57.9415 49.195 58.0614 49.6821H60.8205V48.0991ZM58.0614 44.2025C57.9415 44.5678 57.8215 44.6896 57.3417 44.6896H57.1017V42.9848H57.3417C57.9415 42.9848 58.0614 43.2283 58.0614 43.8372C58.0614 43.9589 58.0614 44.0807 58.0614 44.2025Z" fill="white"/>
<path d="M62.0202 41.1582V42.6195C62.2601 42.7412 62.2601 42.863 62.2601 43.1065C62.2601 43.2283 62.2601 43.3501 62.2601 43.4719V47.3685C62.2601 47.7338 62.2601 47.9773 62.0202 48.2209V49.6821H68.2582V46.6379H65.8589V46.8814C65.8589 47.0032 65.8589 47.125 65.8589 47.2467C65.8589 47.612 65.739 47.8556 65.2591 47.8556H65.0192V46.1508H66.6987V44.5678H65.0192V43.1065H65.1392C65.8589 43.1065 65.9789 43.3501 65.9789 43.9589V44.2025H68.3781V41.4018H62.0202V41.1582Z" fill="white"/>
<path d="M73.2965 42.7412C73.6564 42.9848 73.5365 43.2283 73.5365 43.5936V45.0549L72.0969 41.28H69.2179V42.7412C69.5777 42.9848 69.4578 43.2283 69.4578 43.5936V47.3685C69.4578 47.7338 69.4578 47.9773 69.2179 48.2209V49.6821H71.857V48.2209C71.4971 47.9773 71.6171 47.7338 71.6171 47.3685V45.9073L73.1766 49.6821H75.6958V43.5936C75.6958 43.2283 75.6958 42.9848 75.9357 42.7412V41.28H73.2965V42.7412Z" fill="white"/>
<path d="M84.0931 45.0549V41.28H76.8954V45.0549H78.6948V43.5936C78.6948 43.2283 78.8148 42.9848 79.1747 42.9848V47.3685C79.1747 47.7338 79.1747 47.9773 78.9347 48.2209V49.6821H82.0537V48.2209C81.6939 47.9773 81.8138 47.7338 81.8138 47.3685V42.9848C82.1737 42.9848 82.2937 43.2283 82.2937 43.5936V45.0549H84.0931Z" fill="white"/>
<path d="M90.4511 47.3685L89.2514 41.28H85.5326L84.453 47.2467C84.333 47.612 84.333 47.9773 84.0931 48.2209V49.6821H86.9722V48.2209C86.7323 48.2209 86.6123 47.9773 86.6123 47.7338C86.6123 47.612 86.6123 47.612 86.6123 47.4903H87.8119C87.8119 47.612 87.8119 47.612 87.8119 47.7338C87.8119 47.9773 87.6919 48.0991 87.452 48.2209V49.6821H90.691V48.2209C90.571 48.0991 90.571 47.612 90.4511 47.3685ZM86.7323 45.7855L87.0921 43.2283L87.572 45.7855H86.7323Z" fill="white"/>
<path d="M95.3695 45.5419V46.8814C95.3695 47.3685 95.3695 47.8556 94.7697 47.8556H94.5298V43.4719C94.5298 43.1065 94.5298 42.863 94.7697 42.6195V41.1582H91.6507V42.6195C91.8906 42.7412 91.8906 42.863 91.8906 43.1065C91.8906 43.2283 91.8906 43.3501 91.8906 43.4719V47.3685C91.8906 47.7338 91.8906 47.9773 91.6507 48.2209V49.6821H97.6488V45.5419H95.3695Z" fill="white"/>
<path d="M104.487 45.7855C104.367 45.4202 104.127 45.1766 103.887 44.9331C103.407 44.5678 102.567 44.3242 101.847 44.2025C101.607 44.2025 101.248 44.0807 101.128 43.8372C101.008 43.7154 101.008 43.4719 101.008 43.3501C101.008 42.9848 101.128 42.7412 101.488 42.7412C101.967 42.7412 101.967 43.2283 101.967 43.5936V43.7154H104.367V41.7671C103.407 41.1582 102.447 40.9147 101.248 40.9147C100.528 40.9147 99.6881 41.0365 99.0883 41.4018C98.3685 41.8888 98.2486 42.3759 98.2486 43.3501V43.5936C98.2486 45.4202 99.0883 45.7855 100.768 46.1508C101.488 46.2726 101.967 46.3943 101.967 47.2467C101.967 47.612 101.847 47.8556 101.488 47.8556C101.248 47.8556 101.128 47.7338 101.008 47.612C100.888 47.4903 100.888 47.0032 100.888 46.5161H98.3685V48.8297C99.2083 49.5603 100.288 49.6821 101.368 49.6821C103.887 49.6821 104.607 48.4644 104.607 46.8814C104.726 46.6379 104.607 46.1508 104.487 45.7855Z" fill="white"/>
<path d="M63.9395 30.0772C63.9395 31.5384 63.9395 32.6343 62.1401 32.6343H61.4203V20.7009C61.4203 19.8485 61.3004 18.9961 62.2601 18.3873V14.2471H53.3829V18.3873C54.2227 18.9961 54.2227 19.8485 54.2227 20.7009V31.2949C54.2227 32.1473 54.3426 32.9996 53.3829 33.6085V37.7487H70.2975V26.3023H63.9395V30.0772Z" fill="white"/>
<path d="M73.2965 18.3873C74.1363 18.9961 74.1363 19.8485 74.1363 20.7009V31.2949C74.1363 32.1473 74.2562 32.9996 73.2965 33.6085V37.7487H90.691V29.2248H83.9731V29.9554C83.9731 31.9037 83.9731 32.7561 81.8138 32.7561H81.334V28.0071H85.8925V23.3798H81.334V19.1179H81.8138C83.7332 19.1179 83.9731 19.7267 83.9731 21.4315V22.1621H90.691V14.2471H73.2965V18.3873Z" fill="white"/>
<path d="M49.3042 15.4648C47.6248 14.1253 45.3455 14.1253 43.4261 14.1253H33.3493V18.2655C34.1891 18.6308 34.1891 19.3614 34.309 20.092V31.6602C34.309 32.5126 34.1891 33.1214 33.3493 33.4867V37.7487H43.666C45.8253 37.7487 47.9846 37.6269 49.5441 36.0439C51.3436 34.3391 51.4635 32.6343 51.4635 30.3207V21.5533C51.4635 19.1179 51.2236 16.926 49.3042 15.4648ZM44.1459 30.4425C44.1459 32.1473 43.666 32.7561 42.1065 32.7561H41.5067V19.3614H42.1065C43.666 19.3614 44.1459 19.9703 44.1459 21.675V30.4425Z" fill="white"/>
<path d="M29.8704 31.1731L26.5115 14.1253H16.1948L13.0758 30.8078C12.8359 31.6602 12.8359 32.8779 11.9962 33.4867V37.7487H20.0336V33.6085C19.4338 33.4867 19.0739 32.9996 19.0739 32.269C19.0739 32.0255 19.0739 31.7819 19.1939 31.5384H22.6727C22.6727 31.7819 22.7927 32.0255 22.7927 32.269C22.7927 32.8779 22.5528 33.365 21.953 33.6085V37.7487H31.0701V33.6085C30.2303 33.2432 29.9904 32.0255 29.8704 31.1731ZM19.5537 26.9111L20.7534 19.9703L21.953 26.9111H19.5537Z" fill="white"/>
<path d="M33.4693 47.3685L32.2697 41.28H28.5509L27.4712 47.2467C27.3512 47.612 27.3512 47.9773 27.1113 48.2209V49.6821H29.9904V48.2209C29.7505 48.2209 29.6305 47.9773 29.6305 47.7338C29.6305 47.612 29.6305 47.612 29.6305 47.4903H30.8301C30.8301 47.612 30.8301 47.612 30.8301 47.7338C30.8301 47.9773 30.7102 48.0991 30.4703 48.2209V49.6821H33.7092V48.2209C33.5893 48.0991 33.4693 47.612 33.4693 47.3685ZM29.7505 45.7855L30.1104 43.2283L30.5902 45.7855H29.7505Z" fill="white"/>
<path d="M19.9136 41.1582V45.0549H21.7131V43.5936C21.7131 43.2283 21.833 42.9848 22.1929 42.9848V47.3685C22.1929 47.7338 22.1929 47.9773 21.953 48.2209V49.6821H25.072V48.8297C25.072 48.708 25.072 48.5862 25.072 48.4644V48.2209C24.8321 47.9773 24.8321 47.7338 24.8321 47.3685V42.9848C25.1919 42.9848 25.3119 43.2283 25.3119 43.5936V45.0549H27.1113V41.28H19.9136V41.1582Z" fill="white"/>
<path d="M111.084 31.1731V29.8336C111.084 27.3982 110.365 26.4241 108.085 25.937C110.845 25.2064 111.564 23.0145 111.564 20.4573C111.564 18.2655 110.965 16.3172 109.045 15.2212C107.486 14.2471 105.206 14.2471 103.407 14.2471H93.3301V18.3873C94.1699 18.9961 94.1699 19.8485 94.1699 20.7009V31.2949C94.1699 32.1473 94.2898 32.9996 93.3301 33.6085V37.7487H102.207V33.6085C101.368 32.9996 101.368 32.1473 101.368 31.2949V28.6159H101.607C103.647 28.6159 103.767 29.5901 103.767 31.4166C103.647 35.3133 103.887 36.4092 104.127 37.7487H111.924V33.6085C111.084 33.2432 111.084 32.0255 111.084 31.1731ZM102.087 23.8669H101.368V18.9961H102.087C103.647 18.9961 104.127 19.8485 104.127 21.3097C104.127 23.0145 103.647 23.8669 102.087 23.8669Z" fill="white"/>
</svg>
