<svg id="Capa_1" enable-background="new 0 0 512 512" height="512" viewBox="0 0 512 512" width="512" xmlns="http://www.w3.org/2000/svg"><g><path d="m366 72h-220c-8.284 0-15 6.716-15 15v122.805l107.866-44.416c5.465-2.249 11.228-3.389 17.134-3.389s11.669 1.14 17.13 3.388l107.87 44.417v-122.805c0-8.284-6.716-15-15-15zm-170 60c-8.284 0-15-6.716-15-15s6.716-15 15-15 15 6.716 15 15-6.716 15-15 15zm60 0c-8.284 0-15-6.716-15-15s6.716-15 15-15 15 6.716 15 15-6.716 15-15 15zm60 0c-8.284 0-15-6.716-15-15s6.716-15 15-15 15 6.716 15 15-6.716 15-15 15z"/><g><path d="m321 15c0-8.284-6.716-15-15-15h-100c-8.284 0-15 6.716-15 15v27h130z"/></g><g><path d="m190.461 379.514c5.202 3.744 5.252 3.738 10.446-.002 8.007-5.316 20.392-13.54 40.093-16.448v-166.109l-160.711 66.175c-7.514 3.094-11.198 11.608-8.309 19.203l32.231 84.732c8.375-2.939 18.63-5.065 31.239-5.065 28.64 0 45.148 10.963 55.011 17.514z"/><path d="m314.709 381.947c2.363 1.678 4.375-.877 6.665-2.438 9.869-6.551 26.38-17.509 55.019-17.509 12.634 0 22.905 2.132 31.29 5.076l32.332-84.728c2.898-7.598-.784-16.121-8.304-19.218l-160.711-66.175v166.135c19.601 2.93 31.941 11.123 39.925 16.426 1.336.887 2.952 1.962 3.784 2.431z"/></g><path d="m436.696 512c-19.599 0-30.047-6.931-38.442-12.5-6.81-4.517-11.308-7.5-21.861-7.5-10.54 0-15.033 2.982-21.835 7.497-8.393 5.57-18.836 12.503-38.427 12.503-19.581 0-30.02-6.935-38.406-12.506-6.792-4.513-11.28-7.494-21.804-7.494-10.534 0-15.025 2.982-21.824 7.496-8.39 5.571-18.831 12.504-38.418 12.504-19.584 0-30.023-6.934-38.412-12.505-6.796-4.514-11.285-7.495-21.815-7.495-10.528 0-15.018 2.981-21.813 7.495-8.39 5.571-18.829 12.505-38.413 12.505-19.583 0-30.022-6.934-38.411-12.505-6.796-4.514-11.286-7.495-21.815-7.495-8.284 0-15-6.716-15-15v-70c0-8.284 6.716-15 15-15 19.584 0 30.023 6.934 38.412 12.505 6.796 4.514 11.285 7.495 21.814 7.495s15.019-2.981 21.814-7.495c8.389-5.571 18.828-12.505 38.411-12.505 19.585 0 30.024 6.934 38.413 12.505 6.796 4.514 11.285 7.495 21.814 7.495 10.534 0 15.025-2.982 21.824-7.496 8.39-5.571 18.831-12.504 38.418-12.504 19.581 0 30.019 6.935 38.405 12.506 6.793 4.513 11.28 7.494 21.805 7.494 10.54 0 15.034-2.982 21.835-7.497 8.393-5.57 18.836-12.503 38.427-12.503 19.599 0 30.048 6.931 38.443 12.5 6.81 4.517 11.308 7.5 21.86 7.5s15.051-2.983 21.86-7.5c8.396-5.569 18.845-12.5 38.443-12.5 8.284 0 15 6.716 15 15v70c0 8.284-6.716 15-15 15-10.554 0-15.052 2.983-21.861 7.5-8.394 5.569-18.843 12.5-38.441 12.5z"/></g></svg>