<svg xmlns="http://www.w3.org/2000/svg" id="prefix__delivery" width="92.017" height="63.604"><defs><style>.prefix__cls-1{fill:#ed1c24}</style></defs><path id="prefix__Path_475" d="M41.876 41.052a82.25 82.25 0 0011.209 1.043 56.1 56.1 0 0010.166-1.043c2.346-.521 3.91-2.085 3.91-4.171v-7.56a1.121 1.121 0 00-1.043-1.043h-27.37a1.121 1.121 0 00-1.048 1.043v7.3c0 2.345 1.569 3.909 4.176 4.431zM39.79 30.364h25.546v6.256c0 1.564-1.825 2.085-2.346 2.085a51.493 51.493 0 01-9.906 1.043 71.466 71.466 0 01-10.948-1.043c-1.043-.261-2.346-.782-2.346-2.085z" class="prefix__cls-1" data-name="Path 475" transform="translate(-13.723 -10.292)"/><path id="prefix__Path_476" d="M52.272 63.115a1.043 1.043 0 100 2.085H62.96a1.043 1.043 0 100-2.085z" class="prefix__cls-1" data-name="Path 476" transform="translate(-18.646 -22.971)"/><path id="prefix__Path_477" d="M64.894 55.961a1.121 1.121 0 00-1.043-1.043H48.994a1.043 1.043 0 100 2.085h14.858a1.121 1.121 0 001.042-1.042z" class="prefix__cls-1" data-name="Path 477" transform="translate(-17.452 -19.988)"/><path id="prefix__Path_478" d="M39.153 75.446a2.928 2.928 0 00-3.128-2.085h-4.171a2.336 2.336 0 00-2.346 2.346v2.085a2.572 2.572 0 002.346 2.608h5.735c.782 0 1.564-.782 2.085-1.3a1.228 1.228 0 00.261-1.564zm-1.825 2.867h-5.474a.255.255 0 01-.261-.261v-2.085a.255.255 0 01.261-.261h4.431c.521 0 .782 0 1.043.782l.521 1.825c.001-.26-.26-.26-.521 0z" class="prefix__cls-1" data-name="Path 478" transform="translate(-10.74 -26.701)"/><path id="prefix__Path_479" d="M62.253 78.279h-8.341a1.043 1.043 0 000 2.085h8.341a1.121 1.121 0 001.047-1.043.955.955 0 00-1.047-1.042z" class="prefix__cls-1" data-name="Path 479" transform="translate(-19.242 -28.491)"/><path id="prefix__Path_480" d="M22.351 40.53V30.364h2.085v-2.085h-7.559a1.4 1.4 0 00-1.3 1.3V37.4c0 .261.261.521.521.782l4.692 3.649 4.171 3.128a.807.807 0 00.521.261c.261 0 .521-.261.782-.521A.908.908 0 0026 43.4zm-2.085-1.564l-2.607-1.825v-6.777h2.346v8.6z" class="prefix__cls-1" data-name="Path 480" transform="translate(-5.668 -10.292)"/><path id="prefix__Path_481" d="M44.033 90.574a1.121 1.121 0 00-1.043 1.043c0 2.607 0 2.607-3.649 2.607s-3.649 0-3.649-2.607a1.043 1.043 0 10-2.085 0c0 4.171.782 4.692 5.735 4.692s5.735-.782 5.735-4.692a1.121 1.121 0 00-1.044-1.043z" class="prefix__cls-1" data-name="Path 481" transform="translate(-12.232 -32.965)"/><path id="prefix__Path_482" d="M82.148 90.574a1.121 1.121 0 00-1.043 1.043c0 2.607 0 2.607-3.649 2.607s-3.649 0-3.649-2.607a1.043 1.043 0 00-2.085 0c0 4.171.782 4.692 5.735 4.692s5.735-.782 5.735-4.692a.955.955 0 00-1.044-1.043z" class="prefix__cls-1" data-name="Path 482" transform="translate(-26.104 -32.965)"/><path id="prefix__Path_483" d="M57.608 0H20.072c-.261 0-.521.261-.782.261L.261 18.247a.958.958 0 00-.261.782v33.887a1.121 1.121 0 001.043 1.043h3.128v4.171a1.121 1.121 0 001.043 1.043H7.3v.261c0 1.3 0 2.346.782 3.128s2.084 1.038 4.691 1.038 3.91 0 4.692-1.043c.782-.782.782-1.825.782-3.128v-1.3a1.121 1.121 0 00-1.047-1.042H6.256v-3.128h7.559a1.043 1.043 0 100-2.085H2.085V19.55l16.944-15.9V8.6a1.043 1.043 0 002.085 0V2.085h35.452v6.257a1.043 1.043 0 002.085 0v-7.3A.955.955 0 0057.608 0zM15.9 61.258c-.261.261-1.3.261-3.128.261a14.344 14.344 0 01-3.128-.261v-1.825H15.9v1.825z" class="prefix__cls-1" data-name="Path 483"/><path id="prefix__Path_484" d="M109.522 73.331a1.433 1.433 0 01-1.3-.782l-4.692-6.517a1.669 1.669 0 112.606-2.085l3.389 4.692 7.82-11.209a1.379 1.379 0 012.086-.261 1.7 1.7 0 01.521 2.085l-8.863 13.034a1.886 1.886 0 01-1.567 1.043z" class="prefix__cls-1" data-name="Path 484" transform="translate(-37.576 -20.675)"/><path id="prefix__Path_485" d="M101.927 77.551h-.522c-19.55-9.124-19.029-29.977-19.029-30.238a1.121 1.121 0 011.043-1.043s12.252-1.825 17.986-7.559a.978.978 0 011.564 0c5.735 5.735 17.726 7.559 17.987 7.559.521 0 .782.521 1.042 1.043 0 .261.261 21.114-19.029 30.238zM84.462 48.095c.261 3.91 1.825 19.811 17.465 27.11 15.64-7.56 17.2-23.2 17.465-27.11-2.867-.521-11.991-2.346-17.465-7.3-5.475 4.693-14.598 6.779-17.465 7.3z" class="prefix__cls-1" data-name="Path 485" transform="translate(-29.981 -13.947)"/><path id="prefix__Path_486" d="M67.566 60.857v.521a2.243 2.243 0 01-2.085 2.085h-31.8a2.056 2.056 0 01-2.085-2.085v-39.1a2.282 2.282 0 012.346-2.085 109.521 109.521 0 0115.64-1.043 105.049 105.049 0 0115.64 1.043c.521 0 2.346.521 2.346 2.085V35.05c.782-.261 1.3-.261 2.085-.521V22.017c0-2.085-1.564-3.649-4.171-4.171A117.661 117.661 0 0049.319 16.8a122.542 122.542 0 00-16.162 1.043 4.214 4.214 0 00-3.649 4.171v39.1a4.117 4.117 0 004.171 4.171h31.8a4.845 4.845 0 003.91-2.346 13.055 13.055 0 01-1.823-2.082z" class="prefix__cls-1" data-name="Path 486" transform="translate(-10.74 -6.116)"/><path id="prefix__Path_487" d="M82.336 78.313h-3.91a.91.91 0 00-.521-.261l.521-1.825c.261-.782.261-.782 1.043-.782h1.043c-.261-.782-.521-1.3-.782-2.085a2.928 2.928 0 00-3.13 2.086l-.782 2.346a2.834 2.834 0 00.261 1.3 2.934 2.934 0 002.085 1.3h5.213a3.218 3.218 0 00-1.041-2.079z" class="prefix__cls-1" data-name="Path 487" transform="translate(-27.596 -26.701)"/><path id="prefix__Path_488" d="M94.857 37.924c.782-.261 1.3-.521 2.085-.782v-6.778h2.346v5.474a14.585 14.585 0 002.086-1.3v-4.956a1.232 1.232 0 00-1.3-1.3h-7.041v2.085h2.085v7.559z" class="prefix__cls-1" data-name="Path 488" transform="translate(-33.86 -10.292)"/><path id="prefix__Path_489" d="M63.7 63.115h-2.349l-.261.782c-.782 2.346-2.085 4.431-2.607 4.692H45.71c-.521 0-2.346-2.346-3.389-4.692l-.261-.521h-4.952a1.043 1.043 0 000 2.085h3.649c1.043 2.085 2.867 5.213 4.953 5.213h12.773c2.085 0 3.649-3.389 4.431-5.213h1.564a8.282 8.282 0 01-.778-2.346z" class="prefix__cls-1" data-name="Path 489" transform="translate(-13.127 -22.971)"/></svg>