<svg id="Capa_1" enable-background="new 0 0 512 512" height="512" viewBox="0 0 512 512" width="512" xmlns="http://www.w3.org/2000/svg"><path d="m504.5 477c-22.425 0-34.249 5.709-44.68 10.746-9.855 4.759-19.164 9.254-38.157 9.254s-28.302-4.495-38.157-9.254c-10.431-5.037-22.255-10.746-44.68-10.746-22.424 0-34.247 5.709-44.678 10.746-9.855 4.759-19.163 9.254-38.155 9.254-18.991 0-28.299-4.495-38.154-9.254-10.43-5.037-22.253-10.746-44.676-10.746-22.424 0-34.247 5.709-44.678 10.746-9.854 4.759-19.162 9.254-38.154 9.254s-28.3-4.495-38.154-9.254c-10.431-5.037-22.253-10.746-44.677-10.746-4.142 0-7.5 3.357-7.5 7.5s3.358 7.5 7.5 7.5c18.992 0 28.3 4.495 38.154 9.254 10.431 5.037 22.253 10.746 44.677 10.746s34.246-5.709 44.677-10.746c9.855-4.759 19.163-9.254 38.155-9.254s28.3 4.495 38.154 9.254c10.431 5.037 22.253 10.746 44.676 10.746 22.424 0 34.247-5.709 44.678-10.746 9.855-4.759 19.163-9.254 38.155-9.254 18.993 0 28.302 4.495 38.157 9.254 10.431 5.037 22.254 10.746 44.68 10.746s34.249-5.709 44.68-10.746c9.855-4.759 19.164-9.254 38.157-9.254 4.142 0 7.5-3.357 7.5-7.5s-3.358-7.5-7.5-7.5zm-52-162c-7.444 0-13.5 6.056-13.5 13.5v46c0 7.444 6.056 13.5 13.5 13.5h46c7.444 0 13.5-6.056 13.5-13.5v-46c0-7.444-6.056-13.5-13.5-13.5h-15.5v-257.436c-.016-2.446-1.343-5.374-4.22-6.749l-43.32-21.069c-10.541-5.128-23.189-3.005-31.475 5.282l-36.142 36.159c-2.928 2.93-2.927 7.678.003 10.606 2.929 2.928 7.678 2.928 10.606-.003l5.003-5.006 10.345 41.975-41.961-10.342 5.731-5.734c2.928-2.93 2.927-7.678-.003-10.606-2.93-2.929-7.679-2.929-10.606.003-39.362 39.422-81.068 82.525-119.636 119.696h-68.075v-54.616c7.866.38 15.039-5.217 15-13.5v-18c-.013-8.419-7.581-14.491-15.838-13.5l-9.012-76.08 20.82 14.851c3.371 2.405 8.055 1.621 10.461-1.75 2.405-3.372 1.622-8.056-1.75-10.461l-52.325-37.325c-2.606-1.859-6.104-1.859-8.711 0l-52.326 37.326c-3.372 2.405-4.156 7.089-1.75 10.461 2.424 3.398 7.122 4.136 10.461 1.75l21.258-15.165-9.421 76.393c-8.269-1.055-15.87 5.102-15.868 13.5v18c-.044 7.826 7.042 14.36 15 13.5v54.616h-32.749c-12.407 0-22.5 10.094-22.5 22.5v61.902c-8.729 3.096-15 11.433-15 21.21v23.112c-.079 13.092 11.899 24.071 25.25 22.5v47.46c-8.135-3.06-18.214-5.46-32.75-5.46-4.142 0-7.5 3.357-7.5 7.5s3.358 7.5 7.5 7.5c18.992 0 28.3 4.495 38.154 9.254 10.431 5.037 22.253 10.746 44.677 10.746 19.167 0 29.947-3.633 44.677-10.746 9.855-4.759 19.163-9.254 38.155-9.254s28.3 4.495 38.154 9.254c10.431 5.037 22.253 10.746 44.676 10.746 22.424 0 34.247-5.709 44.678-10.746 9.855-4.759 19.163-9.254 38.155-9.254 18.993 0 28.302 4.495 38.157 9.254 10.431 5.037 22.254 10.746 44.68 10.746s34.249-5.709 44.68-10.746c9.855-4.759 19.164-9.254 38.157-9.254 4.142 0 7.5-3.357 7.5-7.5s-3.358-7.5-7.5-7.5c-22.425 0-34.249 5.709-44.68 10.746-9.855 4.759-19.164 9.254-38.157 9.254s-28.302-4.495-38.157-9.254c-10.431-5.037-22.255-10.746-44.68-10.746-22.424 0-34.247 5.709-44.678 10.746-7.238 3.495-14.197 6.841-24.898 8.375v-61.121c13.179.65 25.319-8.523 25.25-22.5v-23.111c0-9.777-6.271-18.114-15-21.21v-32.012l188.5-188.5v239.333zm-340.389-291.054 10.14-7.233 10.653 7.599 10.406 87.849h-42.077zm-26.861 103.214h74.001v15h-74.001zm22.26 57.309 36.741-21.676v43.351zm16.767 27.307h-24.027v-14.175zm-24.027-40.44v-14.176h24.028zm4 252.684c-4.033.616-8.584.98-13.919.98-17.014 0-26.255-3.609-35.081-7.783v-54.217h49zm86-17.728c-4.953-.808-10.57-1.292-17.087-1.292-22.424 0-34.247 5.709-44.678 10.746-3.03 1.463-6.011 2.9-9.235 4.191v-56.937h71zm64 18.682c-17.809-.271-26.867-4.62-36.411-9.228-3.852-1.86-7.895-3.811-12.589-5.533v-47.213h49zm25.25-84.474c0 4.136-3.364 7.5-7.5 7.5h-234.5c-4.136 0-7.5-3.364-7.5-7.5v-23.111c0-4.136 3.364-7.5 7.5-7.5h74.751c4.142 0 7.5-3.357 7.5-7.5s-3.358-7.5-7.5-7.5h-67.251v-60.612c0-4.136 3.364-7.5 7.5-7.5h204.5c4.136 0 7.5 3.364 7.5 7.5v60.612h-122.249c-4.142 0-7.5 3.357-7.5 7.5s3.358 7.5 7.5 7.5h129.749c4.136 0 7.5 3.364 7.5 7.5zm0-97.547v-8.676c0-12.406-10.093-22.5-22.5-22.5h-8.466l34.049-34.066 12.292 49.868zm27.769-27.769-10.347-41.979 41.98 10.347zm-5.849-56.32 31.6-31.616 10.34 41.953zm56.291 5.878-10.347-41.979 41.979 10.347zm50.441-50.441-10.347-41.98 41.98 10.347zm44.028-44.028-49.917-12.303 12.331-12.337c3.765-3.764 9.515-4.727 14.306-2.398l33.853 16.465zm44.82 259.727v43h-43v-43z"/></svg>