<svg height="512" viewBox="0 0 56 56" width="512" xmlns="http://www.w3.org/2000/svg"><g id="Page-1" fill="none" fill-rule="evenodd"><g id="027---Oil-Refinery" fill="rgb(0,0,0)" fill-rule="nonzero"><path id="Rectangle-path" d="m6 47h17v3h-17z"/><path id="Rectangle-path" d="m6 38h17v3h-17z"/><path id="Shape" d="m4 51v-19.42c-.00284801-.7173695.37873161-1.3813181 1-1.74l4-2.24v-9.6h-5v5c0 .5522847-.44771525 1-1 1s-1-.4477153-1-1v-5h-2v38h4z"/><path id="Shape" d="m27 6c0-3.3137085-2.6862915-6-6-6s-6 2.6862915-6 6v3h12zm-6-2c-1.1045695 0-2 .8954305-2 2 0 .55228475-.4477153 1-1 1s-1-.44771525-1-1c0-2.209139 1.790861-4 4-4 .5522847 0 1 .44771525 1 1s-.4477153 1-1 1z"/><path id="Shape" d="m34 36v-19c0-.5522847-.4477153-1-1-1h-3c-.5522847 0-1 .4477153-1 1v8.88l.11-.05c.6197845-.3079786 1.3547444-.2736415 1.9431146.0907815.5883701.3644231.9465182 1.0071322.9468854 1.6992185v8.38z"/><path id="Shape" d="m27 26.88v-15.88h-8v7c0 .5522847-.4477153 1-1 1s-1-.4477153-1-1v-7h-2v13.23l4-2.23c.620033-.3579838 1.3841275-.3572289 2.003452.0019793s.9993969 1.0220701.996548 1.7380207v5.67z"/><path id="Shape" d="m9 15.5c-.00469325-2.4445849-1.95613771-4.4403804-4.4-4.5-1.17218281-.0072994-2.29882244.453435-3.13 1.28-.93240047.9107443-1.46172448 2.1566362-1.47 3.46v.26h9z"/><path id="Shape" d="m40 38h-9c-.5522847 0-1-.4477153-1-1v-9.38l-8.55 4.27c-.3095182.1559692-.6777279.1405453-.9731178-.0407631-.29539-.1813083-.4758333-.5026437-.4768822-.8492369v-7.29l-14 7.87v4.42h17c1.1045695 0 2 .8954305 2 2v3c0 1.1045695-.8954305 2-2 2h-17v2h17c1.1045695 0 2 .8954305 2 2v3c0 1.1045695-.8954305 2-2 2h-17v4h34v-4h-11c-1.1045695 0-2-.8954305-2-2v-3c0-1.1045695.8954305-2 2-2h11z"/><path id="Shape" d="m56 56v-29h-5v9h-6v-18h-5v7c0 .5522847-.4477153 1-1 1s-1-.4477153-1-1v-7h-2v18h4c1.1045695 0 2 .8954305 2 2v18h3v-18h6v18z"/><path id="Shape" d="m29 47v3h11v-3z"/><path id="Shape" d="m55 17c0-1.6568542-1.3431458-3-3-3h-7.27c-.6141878-1.7650192-2.261565-2.9616612-4.13-3-1.1717547-.0050906-2.2975802.4553108-3.13 1.28-.9324005.9107443-1.4617245 2.1566362-1.47 3.46v.26h16c.5522847 0 1 .4477153 1 1v4.05c-1.1641656.2376343-2.0002425 1.2618285-2 2.45v1.5h5v-1.5c-.001566-.7865228-.3717214-1.5268335-1-2z"/></g></g></svg>