<svg width="40" height="60" version="1.1" xmlns="http://www.w3.org/2000/svg"><g id="Page-1" stroke="none" stroke-width="1" fill="none" fill-rule="evenodd"><g id="Group-18"><path id="Rectangle" stroke="#ED1C24" stroke-width="1.5" fill="#FFF" d="M2.75 6.417h33.5v49.5H2.75z"/><path d="M32.512 7.065c-1.834 7.283-4.461 11.116-7.882 11.498-5.13.573-7.087-3.074-8.237-4.397-1.15-1.323-2.22-.57-3.085-.285-.865.285-4.8 4.216-8.892-5.881-.287-.668-.38-.842-.28-.521l28.376-.414z" id="Path-4" stroke="#ED1C23" stroke-width="1.5"/><rect id="Rectangle" stroke="#ED1C24" fill="#FFF" x="29.278" y=".5" width="5" height="4" rx="1.5"/><rect id="Rectangle-Copy-14" stroke="#ED1C24" stroke-width="1.5" fill="#FFF" x=".75" y="29.75" width="37.833" height="3.5" rx="1.75"/><rect id="Rectangle-Copy-15" stroke="#ED1C24" stroke-width="1.5" fill="#FFF" x=".75" y="55.75" width="37.833" height="3.5" rx="1.75"/><rect id="Rectangle-Copy-16" stroke="#ED1C24" stroke-width="1.5" fill="#FFF" x=".75" y="3.75" width="37.833" height="3.5" rx="1.75"/></g></g></svg>