<?xml version="1.0" encoding="iso-8859-1"?>
<!-- Generator: Adobe Illustrator 19.0.0, SVG Export Plug-In . SVG Version: 6.00 Build 0)  -->
<svg version="1.1" id="Capa_1" xmlns="http://www.w3.org/2000/svg" xmlns:xlink="http://www.w3.org/1999/xlink" x="0px" y="0px"
	 viewBox="0 0 512 512" style="enable-background:new 0 0 512 512;" xml:space="preserve">
<g>
	<g>
		<path d="M512,260.333v-30h-95.678V196.69L271,119.01V83.333h86.629V0H241v119.01L95.678,196.69v33.644H0v30h18.917V482H0v30h512
			v-30h-18.917V260.333H512z M271,30h56.629v23.333H271V30z M125.678,214.67L256,145.009l130.323,69.661v15.663H125.678V214.67z
			 M354.333,260.333v151.333h-30V260.333H354.333z M213.667,260.333h80.667v151.333h-80.667V260.333z M183.667,260.333v151.334h-30
			V260.333H183.667z M123.667,411.666H95.678V482H48.917V260.333h74.75V411.666z M386.323,482H125.678v-40.333h260.645V482z
			 M463.083,482h-46.761v-70.333h-31.989V260.333h78.75V482z"/>
	</g>
</g>
<g>
</g>
<g>
</g>
<g>
</g>
<g>
</g>
<g>
</g>
<g>
</g>
<g>
</g>
<g>
</g>
<g>
</g>
<g>
</g>
<g>
</g>
<g>
</g>
<g>
</g>
<g>
</g>
<g>
</g>
</svg>
