<?xml version="1.0" encoding="iso-8859-1"?>
<!-- Generator: Adobe Illustrator 19.0.0, SVG Export Plug-In . SVG Version: 6.00 Build 0)  -->
<svg version="1.1" id="Layer_1" xmlns="http://www.w3.org/2000/svg" xmlns:xlink="http://www.w3.org/1999/xlink" x="0px" y="0px"
	 viewBox="0 0 512 512" style="enable-background:new 0 0 512 512;" xml:space="preserve">
<g>
	<g>
		<path d="M504.5,221.231c-4.143,0-7.5,3.357-7.5,7.5v13.485l-51.17-19.843v-41.894c0-4.143-3.357-7.5-7.5-7.5h-33.57
			c-4.143,0-7.5,3.357-7.5,7.5v23.06l-15.93-6.177v-36.674c0-4.143-3.357-7.5-7.5-7.5h-33.57c-4.143,0-7.5,3.357-7.5,7.5v17.84
			l-29.717-11.523C302.04,83.352,288.295,49.099,256,49.099c-32.296,0-46.041,34.254-47.043,117.906l-29.717,11.523v-17.84
			c0-4.143-3.357-7.5-7.5-7.5h-33.57c-4.143,0-7.5,3.357-7.5,7.5v36.674l-15.93,6.177v-23.06c0-4.143-3.357-7.5-7.5-7.5H73.67
			c-4.143,0-7.5,3.357-7.5,7.5v41.895L15,242.217v-13.485c0-4.143-3.357-7.5-7.5-7.5s-7.5,3.357-7.5,7.5v24.435
			c0,0.001,0,0.001,0,0.002v0.001v42.6c0,2.228,0.99,4.34,2.702,5.765c1.358,1.13,3.059,1.735,4.798,1.735
			c0.453,0,0.908-0.041,1.361-0.125l167.629-30.937c0.706-0.033,1.387-0.159,2.029-0.374l33.621-6.205
			c2.681,40.695,6.77,80.464,11.543,112.471l-57.563,29.695c-2.494,1.286-4.062,3.858-4.062,6.665v25.1
			c0,2.211,0.976,4.309,2.666,5.734c1.362,1.148,3.078,1.766,4.834,1.766c0.422,0,0.846-0.035,1.268-0.107l64.684-11.092
			c0.444,1.459,0.89,2.857,1.338,4.182c3.595,10.643,9.021,22.857,19.151,22.857s15.557-12.215,19.151-22.857
			c0.448-1.326,0.894-2.723,1.338-4.182l64.684,11.092c0.422,0.072,0.846,0.107,1.268,0.107c1.756,0,3.472-0.617,4.834-1.766
			c1.69-1.426,2.666-3.523,2.666-5.734v-25.1c0-2.807-1.567-5.379-4.062-6.665l-57.562-29.696
			c4.773-32.007,8.862-71.776,11.543-112.471l33.621,6.205c0.642,0.215,1.323,0.342,2.029,0.374l167.629,30.937
			c0.453,0.084,0.908,0.125,1.361,0.125c1.738,0,3.439-0.605,4.798-1.735c1.712-1.425,2.702-3.537,2.702-5.765v-42.6v-0.001
			c0,0,0-0.001,0-0.002v-24.435H512C512,224.588,508.643,221.231,504.5,221.231z M145.67,168.188h18.57v16.155l-18.57,7.202V168.188
			z M81.17,187.979h18.57v21.374l-18.57,7.202V187.979z M168.639,258.403L15,286.758v-6.695l153.639-30.902V258.403z
			 M183.638,255.634v-15.633c0.001-2.247-1.008-4.377-2.747-5.802c-1.74-1.425-4.027-1.992-6.23-1.55L15,264.763v-6.459
			l193.923-75.198c0.133,20.277,0.916,43.34,2.29,67.439L183.638,255.634z M177.06,430.663v-11.634l49.111-25.336
			c1.772,10.376,3.603,19.597,5.48,27.608L177.06,430.663z M272.285,383.655c-7.083,44.411-13.506,58.539-16.285,62.832
			c-2.779-4.293-9.202-18.421-16.285-62.832c-5.616-35.217-10.282-80.459-13.139-127.394c-1.751-28.665-2.676-56.077-2.676-79.272
			c0-1.614,0-3.209,0.01-4.787C224.53,64.099,246.583,64.099,256,64.099s31.47,0,32.09,108.106c0.01,1.575,0.01,3.17,0.01,4.784
			c0,23.195-0.925,50.607-2.676,79.273C282.568,303.196,277.902,348.438,272.285,383.655z M334.939,419.03v11.633l-54.591-9.361
			c1.877-8.012,3.709-17.232,5.48-27.608L334.939,419.03z M412.26,187.979h18.57v28.576l-18.57-7.202V187.979z M347.76,168.188
			h18.57v23.357l-18.57-7.202V168.188z M497,286.757l-153.639-28.354v-9.242L497,280.063V286.757z M497,264.763l-159.66-32.114
			c-2.205-0.443-4.491,0.125-6.23,1.55c-1.739,1.425-2.748,3.555-2.748,5.803v15.633l-27.575-5.089
			c1.375-24.1,2.157-47.163,2.29-67.439L497,258.305V264.763z"/>
	</g>
</g>
<g>
	<g>
		<path d="M281.1,105.517c-0.569-2.813-2.693-5.053-5.471-5.772c-15.911-4.119-30.103-2.266-39.208,0.017
			c-2.803,0.703-4.953,2.953-5.527,5.785c-1.186,5.853-2.044,12.955-2.551,21.112c-0.157,2.521,0.966,4.951,2.987,6.467
			c2.021,1.514,4.669,1.912,7.045,1.052c0.464-0.167,0.894-0.344,1.309-0.538c0.752-0.323,16.178-6.756,33.207,0.252
			c0.268,0.114,0.538,0.217,0.805,0.311c0.807,0.282,1.643,0.42,2.474,0.42c1.613,0,3.208-0.521,4.529-1.521
			c2.003-1.517,3.112-3.936,2.957-6.442C283.151,118.509,282.291,111.395,281.1,105.517z M244.287,116.77
			c0.146-1.193,0.304-2.346,0.471-3.456c6.103-1.073,13.897-1.577,22.476-0.058c0.169,1.119,0.327,2.279,0.476,3.48
			C258.582,114.935,250.38,115.589,244.287,116.77z"/>
	</g>
</g>
<g>
</g>
<g>
</g>
<g>
</g>
<g>
</g>
<g>
</g>
<g>
</g>
<g>
</g>
<g>
</g>
<g>
</g>
<g>
</g>
<g>
</g>
<g>
</g>
<g>
</g>
<g>
</g>
<g>
</g>
</svg>
