<?xml version="1.0"?>
<svg xmlns="http://www.w3.org/2000/svg" width="21" height="20" viewBox="0 0 21 20" fill="none">
<path fill-rule="evenodd" clip-rule="evenodd" d="M12.1538 9.06283C12.1538 12.3045 9.90786 14.1257 8.07692 14.1257C6.24599 14.1257 4 12.3045 4 9.06283C4 5.82112 6.24599 4 8.07692 4C9.90786 4 12.1538 5.82112 12.1538 9.06283ZM13.7882 15.4712C12.3265 17.1113 10.3073 18.1257 8.07692 18.1257C3.61616 18.1257 0 14.0681 0 9.06283C0 4.05757 3.61616 0 8.07692 0C12.5377 0 16.1538 4.05757 16.1538 9.06283C16.1538 10.05 16.0132 11.0003 15.7531 11.8899C15.9511 11.9916 16.1367 12.134 16.2997 12.3169L19.7922 16.2358C20.5271 17.0604 20.5271 18.3973 19.7922 19.2219C19.0573 20.0466 17.8658 20.0466 17.1309 19.2219L13.7882 15.4712Z" fill="#ED1C24"/>
</svg>
