<svg xmlns="http://www.w3.org/2000/svg" id="prefix__stopwatch" width="72.903" height="63.604"><defs><style>.prefix__cls-1{fill:#ed1c24}</style></defs><path id="prefix__Path_454" d="M24.033 45.91a.805.805 0 000-1.61H17.39a27.151 27.151 0 011.852-6.642.8.8 0 00-1.489-.6A28.446 28.446 0 0015.78 44.3H.805a.805.805 0 100 1.61z" class="prefix__cls-1" data-name="Path 454" transform="translate(0 -13.303)"/><path id="prefix__Path_455" d="M67.936 12.922L71.2 9.661l2.533 2.539a.778.778 0 001.127 0 .779.779 0 000-1.127l-6.2-6.2A.8.8 0 0067.533 6l2.536 2.536-3.381 3.381A28.394 28.394 0 0050.3 6.2V1.61h3.824a.805.805 0 100-1.61h-9.3a.805.805 0 000 1.61h3.824V6.2a28.647 28.647 0 00-22.819 12.4H15.362a.805.805 0 100 1.61h10.507a.889.889 0 00.644 0H38.59a.805.805 0 000-1.61H27.841a27.1 27.1 0 0137.921-5.354.649.649 0 00.242.523.8.8 0 00.564.242h.161a27.076 27.076 0 11-41.464 32.927.81.81 0 10-1.449.725A28.445 28.445 0 0049.5 63.6a28.69 28.69 0 0018.436-50.678z" class="prefix__cls-1" data-name="Path 455" transform="translate(-5.298)"/><path id="prefix__Path_456" d="M56.271 53.923a.778.778 0 001.127 0l3.945-3.945a5.352 5.352 0 003.22 1.087A5.437 5.437 0 0070 45.63a5.264 5.264 0 00-1.087-3.22l11.673-11.674a.8.8 0 10-1.127-1.127L67.785 41.283a5.352 5.352 0 00-3.22-1.087 5.438 5.438 0 00-5.435 5.434 5.264 5.264 0 001.087 3.22l-3.946 3.95a.857.857 0 000 1.123zM64.6 41.766a3.834 3.834 0 012.295.765.825.825 0 00.805.805 3.824 3.824 0 01-5.35 5.354.826.826 0 00-.805-.805 3.833 3.833 0 01-.765-2.295 3.772 3.772 0 013.82-3.824z" class="prefix__cls-1" data-name="Path 456" transform="translate(-20.404 -10.689)"/><path id="prefix__Path_457" d="M33.055 63.079a.807.807 0 00-.805-.805H21.582a27.344 27.344 0 01-.886-5.435.807.807 0 00-.845-.765.836.836 0 00-.765.845 26.889 26.889 0 00.805 5.354h-9.339a.805.805 0 000 1.61h21.7a.807.807 0 00.803-.804z" class="prefix__cls-1" data-name="Path 457" transform="translate(-3.547 -20.408)"/></svg>