<svg id="Layer_1" data-name="Layer 1" xmlns="http://www.w3.org/2000/svg" viewBox="0 0 264.54 291.94"><defs><style>.cls-1{fill:#ed1c24}</style></defs><path class="cls-1" d="M196.53 267.29a68.1 68.1 0 0068-68c0-35.84-60.87-122.34-63.46-126a5.57 5.57 0 00-7.76-1.29 5.68 5.68 0 00-1.31 1.29c-2.59 3.66-63.46 90.16-63.46 126a68.09 68.09 0 0067.99 68zm0-181c19.3 28.24 56.86 88.31 56.86 113a56.86 56.86 0 11-113.72 0c0-24.65 37.6-84.78 56.86-113zm-58.95 9.93c0-26.46-42.29-87-47.11-93.86A5.57 5.57 0 0082.71 1a5.68 5.68 0 00-1.34 1.34c-4.82 6.82-47.12 67.4-47.12 93.86a51.67 51.67 0 00103.33 0zm-51.66 40.52A40.57 40.57 0 0145.4 96.22c0-17.38 26.06-59.47 40.52-80.84 14.46 21.36 40.52 63.45 40.52 80.84a40.57 40.57 0 01-40.52 40.52zM43.38 168a5.56 5.56 0 00-4.55 2.36C34.83 175.94 0 225.87 0 247.89a43.39 43.39 0 0086.77 1.32v-1.32c0-22-34.86-71.95-38.84-77.57a5.56 5.56 0 00-4.55-2.32zm0 112.17a32.27 32.27 0 01-32.24-32.24c0-13.7 20.3-46.75 32.24-64.52 11.94 17.77 32.24 50.82 32.24 64.52a32.27 32.27 0 01-32.24 32.2z" transform="translate(.01)"/><path class="cls-1" d="M192.67 236.47h.54a5.57 5.57 0 00.53-11.12 28.67 28.67 0 01-25.67-25.5A5.57 5.57 0 00157 200.9v.1a39.83 39.83 0 0035.67 35.47z" transform="translate(.01)"/></svg>