<svg id="Layer_1" data-name="Layer 1" xmlns="http://www.w3.org/2000/svg" viewBox="0 0 280.66 247.61"><defs><style>.cls-1{fill:#ed1c24}</style></defs><path class="cls-1" d="M165.92 74.05a4.64 4.64 0 00.36 9.26h.36c12.08-1 29.08-4.78 41.46-17.6 23.13-24 24.26-58.68 24.3-60.15a4.63 4.63 0 00-4-4.71C226.56.59 183.15-5.4 159.64 19c-9.11 9.43-13.42 19-14.41 32a4.64 4.64 0 009.25.7c.82-10.84 4.25-18.46 11.83-26.32 16.26-16.88 45.48-16.6 56.44-15.81-1 9.52-5.19 32.92-21.35 49.65-10.34 10.78-25.01 14.01-35.48 14.83z" transform="translate(-.01 -.02)"/><path class="cls-1" d="M184.73 42.06a4.64 4.64 0 10-4-8.36c-.08 0-.16.08-.24.12-2.8 1.45-22 12.29-34.35 42-6.49-6-15.54-10.54-26.66-13.15a4.64 4.64 0 00-2.89 8.82 5.06 5.06 0 00.77.18c8 1.87 18.73 5.82 25.25 13.86a143.63 143.63 0 00-5.66 26.74 4.64 4.64 0 004.06 5.15h.55a4.63 4.63 0 004.6-4.09c6.24-53.09 35.28-69.57 38.57-71.27z" transform="translate(-.01 -.02)"/><path class="cls-1" d="M125.93 79.8c-8.64 3.28-16.88 3.7-24.5 1.23-15.26-4.94-25.73-17.52-30.17-23.75 7.51-4.57 25.23-13.65 40.67-8.64 7.39 2.4 12.95 6.3 17 11.94a4.64 4.64 0 007.76-5.1l-.23-.31a41.74 41.74 0 00-21.67-15.35c-24.59-8-51.56 11.55-52.69 12.38a4.64 4.64 0 00-1.29 6c.55 1 13.7 23.84 37.76 31.63a41.92 41.92 0 0013 2 49.44 49.44 0 0017.66-3.43 4.64 4.64 0 00-3.29-8.67zm138.18-48.39c-7 0-14 5.32-19.62 15-4.29 7.38-7.18 16.25-7.18 22.07v24.08a4.64 4.64 0 109.27.43 3.09 3.09 0 000-.43V68.45c0-3.5 2.08-10.79 5.93-17.4s8.11-10.37 11.6-10.37c5.3 0 7.29 0 7.29 12.41v71.68c0 7.35-4.2 18.14-9.16 23.56l-35.62 38.85c-4.05 4.41-8.15 11.33-8.15 16v.71h-44.09v-32a23.32 23.32 0 017.44-16.89l46.83-42.14a11.23 11.23 0 0115 16.7l-26.43 23.79a4.64 4.64 0 006.21 6.89l26.42-23.79a20.5 20.5 0 00-26.24-31.51c-.4.34-.79.69-1.17 1.06l-46.83 42.14a32.39 32.39 0 00-10.51 23.74v32.07h-3.21a9.77 9.77 0 00-9.76 9.76v24.19a9.76 9.76 0 009.76 9.75h69.05a9.77 9.77 0 009.75-9.75v-24.23a9.78 9.78 0 00-9.75-9.76h-3.19v-.7c0-1.25 2.08-5.82 5.7-9.77l35.62-38.85c6.51-7.09 11.6-20.2 11.6-29.82V53.09c0-15.81-4.49-21.68-16.56-21.68zm-32.69 182.26v24.19a.47.47 0 01-.46.48h-69.07a.49.49 0 01-.49-.48v-24.19a.47.47 0 01.48-.48h69.06a.47.47 0 01.48.46z" transform="translate(-.01 -.02)"/><path class="cls-1" d="M173.44 221.13h-1.81a4.64 4.64 0 10-.43 9.27h2.24a4.64 4.64 0 00.43-9.27zm-54.65-17.22h-3.22v-32.07a32.39 32.39 0 00-10.51-23.74L58.23 106a20.5 20.5 0 10-27.43 30.46l26.43 23.79a4.63 4.63 0 006.2-6.89L37 129.57a11.23 11.23 0 0114.44-17.2l.56.5L98.85 155a23.33 23.33 0 017.48 16.86v32.07H62.19v-.71c0-4.69-4.09-11.61-8.14-16l-35.61-38.87c-5-5.42-9.17-16.21-9.17-23.56v-71.7c0-12.41 2-12.41 7.3-12.41 3.49 0 7.83 3.88 11.6 10.37S34.1 65 34.1 68.45v24.08a4.64 4.64 0 009.27.43 3.09 3.09 0 000-.43V68.45c0-5.82-2.88-14.69-7.18-22.07-5.62-9.65-12.59-15-19.61-15C4.5 31.38 0 37.25 0 53.06v71.68c0 9.63 5.09 22.73 11.6 29.83l35.62 38.84c3.62 4 5.66 8.52 5.7 9.76v.71h-3.17a9.77 9.77 0 00-9.75 9.76v24.19a9.76 9.76 0 009.76 9.75h69a9.77 9.77 0 009.75-9.75v-24.16a9.76 9.76 0 00-9.72-9.76zm.48 34a.5.5 0 01-.48.48h-69a.49.49 0 01-.49-.48v-24.24a.47.47 0 01.48-.48h69a.47.47 0 01.48.48z" transform="translate(-.01 -.02)"/><path class="cls-1" d="M109 221.13h-1.82a4.64 4.64 0 000 9.27H109a4.64 4.64 0 00.43-9.27z" transform="translate(-.01 -.02)"/></svg>