<svg id="Layer_5" enable-background="new 0 0 64 64" height="512" viewBox="0 0 64 64" width="512" xmlns="http://www.w3.org/2000/svg"><g><path d="m34 3c0-.552-.448-1-1-1h-2c-.552 0-1 .448-1 1v2h4z"/><path d="m26.869 29h10.262l-2.666-4h-4.93z"/><path d="m15 47h6v12h-6z"/><path d="m32 53c-1.506 0-2.997-.497-4.2-1.4l-4.8-3.6v12c0 .552.448 1 1 1h16c.552 0 1-.448 1-1v-12.001l-4.801 3.6c-1.202.904-2.693 1.401-4.199 1.401zm-5 6h-2v-2h2zm4 0h-2v-2h2zm4 0h-2v-2h2zm2-2h2v2h-2z"/><path d="m17 7h30.001v2h-30.001z"/><path d="m30 19h4v4h-4z"/><path d="m2 47h7v12h-7z"/><path d="m12 45c-.552 0-1 .448-1 1v14c0 .552.448 1 1 1s1-.448 1-1v-14c0-.552-.448-1-1-1z"/><path d="m29.38 17h5.238l6.75-6h-18.738z"/><path d="m23.102 45.577 5.898 4.423c1.719 1.289 4.282 1.289 5.999 0l5.899-4.423c-.16-.339-.499-.577-.898-.577h-16c-.399 0-.738.238-.898.577z"/><path d="m52 45c-.552 0-1 .448-1 1v14c0 .552.448 1 1 1s1-.448 1-1v-14c0-.552-.448-1-1-1z"/><path d="m43 47h6v12h-6z"/><path d="m29.535 35h4.93l2.666-4h-10.262z"/><path d="m55 47h7v12h-7z"/><path d="m30 37h4v6h-4z"/></g></svg>