<svg xmlns="http://www.w3.org/2000/svg" width="1489.237" height="214.957"><defs><style>.prefix__cls-1{fill:none;stroke:#fdd600;stroke-miterlimit:10}</style></defs><g id="prefix__WavyLines" transform="rotate(180 740.18 -88.65)"><path id="prefix__Path_444" d="M-8.136-374.049C74.846-340.87 195.229-304.7 331.739-310.7c176.771-7.769 213.981-78.925 373.6-81.011 189.547-2.478 256.422 96.3 446.247 95.63 125.059-.439 226.056-43.766 290.581-79.184" class="prefix__cls-1" data-name="Path 444" transform="translate(.011)"/><path id="prefix__Path_445" d="M-8.212-357.843c92.331 27.274 212.222 59.089 342.771 55.319 53.92-1.557 94.666-7.746 129.675-15.637 59.1-13.322 101.257-31.079 165.773-40.832a642.783 642.783 0 0176.071-7.125c79.2-2.62 136.406 10.163 196.439 27.629 76.614 22.292 145.29 52.914 249.927 54.355 69.115.964 131.889-10.615 187.522-28.054a629.364 629.364 0 00106.43-44.775" class="prefix__cls-1" data-name="Path 445" transform="translate(.009 -2.647)"/><path id="prefix__Path_446" d="M-8.287-341.7c101.631 21.369 221.094 48.931 345.656 47.29 53.78-.708 94.308-4.795 128.78-10.132 58.928-9.124 99.366-21.09 164.845-28.951 24.084-2.891 48.657-5.611 75.824-7.094 75.709-4.136 130.655 3.231 194.434 17.345 80.18 17.742 149.765 47.737 252.052 51 67.63 2.173 130.236-7.063 188.454-23.491a592.715 592.715 0 00108.861-42.986" class="prefix__cls-1" data-name="Path 446" transform="translate(.008 -5.234)"/><path id="prefix__Path_447" d="M-8.363-326.549c110.887 15.465 230.063 37.013 348.533 39.262 53.618 1.019 94.04-1.818 127.893-4.627 58.909-4.89 97.527-11.065 163.924-17.071 24.918-2.254 49.287-5.014 75.578-7.062 72.225-5.627 124.823-3.66 192.447 7.059 83.583 13.25 154.219 42.561 254.17 47.637a631.058 631.058 0 00189.385-18.926 567.2 567.2 0 00111.277-41.2" class="prefix__cls-1" data-name="Path 447" transform="translate(.007 -6.822)"/><path id="prefix__Path_448" d="M-8.438-311.405c120.1 9.561 238.832 28.933 351.4 31.233 53.557 1.1 93.844.433 127.013.878 58.993.79 95.724-1 163.009-5.191 25.755-1.6 49.914-4.408 75.337-7.03 68.757-7.091 118.95-10.495 190.468-3.226 86.881 8.83 158.652 37.383 256.281 44.277a641.007 641.007 0 00190.313-14.362 549.808 549.808 0 00113.684-39.405" class="prefix__cls-1" data-name="Path 448" transform="translate(.006 -8.406)"/><path id="prefix__Path_449" d="M-8.514-296.262c129.262 3.658 247.659 19.094 354.257 23.206 53.458 2.061 93.658 4.282 126.138 6.381 59.133 3.823 93.945 9.1 162.1 6.689 26.595-.938 50.54-3.792 75.1-7 65.314-8.527 113.079-17.266 188.5-13.511 90.126 4.487 163.066 32.206 258.387 40.917 63.219 5.806 125.337 3.6 191.24-9.8a538.683 538.683 0 00116.079-37.615" class="prefix__cls-1" data-name="Path 449" transform="translate(.005 -9.99)"/><path id="prefix__Path_450" d="M-8.59-281.151c138.387-2.247 256.427 9.359 357.107 15.177 53.352 3.083 93.448 7.411 125.27 11.886 59.2 8.324 92.171 19.227 161.2 18.57 27.43-.261 51.172-3.164 74.857-6.965 61.907-9.933 107.283-24.865 186.555-23.8 93.336 1.26 167.46 27.03 260.484 37.557 61.764 7.017 123.722 7.151 192.165-5.234a532.528 532.528 0 00118.463-35.825" class="prefix__cls-1" data-name="Path 450" transform="translate(.004 -11.541)"/><path id="prefix__Path_451" d="M-8.665-266.377c147.464-8.152 265.108-.272 359.943 7.148 53.221 4.164 93.17 10.576 124.411 17.391 59.136 12.9 90.4 29.388 160.307 30.45a352.055 352.055 0 0074.622-6.933c58.544-11.311 101.5-30.638 184.614-34.08 96.656-4 171.835 21.852 262.575 34.2 60.322 8.228 122.12 10.705 193.088-.669 53.339-8.6 94.05-22.817 120.842-34.036" class="prefix__cls-1" data-name="Path 451" transform="translate(.002 -12.755)"/><path id="prefix__Path_452" d="M-8.741-251.895c156.5-14.056 273.675-9.807 362.775-.88 53.046 5.315 92.808 13.758 123.554 22.9C536.5-212.369 566.2-190.3 637.009-187.548a274.1 274.1 0 0074.388-6.9c55.24-12.661 95.83-37.261 182.689-44.366 100-8.18 176.191 16.676 264.659 30.837 58.883 9.438 120.524 14.258 194.009 3.9 55.085-7.8 96.6-21.627 123.206-32.246" class="prefix__cls-1" data-name="Path 452" transform="translate(.001 -13.679)"/><path id="prefix__Path_453" d="M-8.816-237.56c270.147-32.582 410-10.1 488.3 19.492 58.547 22.124 86.811 49.784 158.539 54.211 103.781 6.4 127.834-46.363 254.932-61.521 172.314-20.548 271.661 59.322 461.666 35.937 56.824-6.993 99.133-20.437 125.563-30.455" class="prefix__cls-1" data-name="Path 453" transform="translate(0 -14.454)"/></g></svg>