<svg width="30" height="22" viewBox="0 0 30 22" fill="none" xmlns="http://www.w3.org/2000/svg">
<path fill-rule="evenodd" clip-rule="evenodd" d="M28.67 19.4263C29.602 17.816 30 15.2197 30 10.9962C30 6.78945 29.6056 4.20816 28.6639 2.55479C27.7201 0.837874 26.6009 0.292919 24.3795 0.162114C22.863 0.058468 19.094 0 15.0037 0C10.9045 0 7.1338 0.0584463 5.60591 0.162926C3.39698 0.29323 2.27742 0.839389 1.32536 2.56107C0.397342 4.20874 0 6.80263 0 11.0115C0 15.1965 0.399266 17.8035 1.33352 19.4458C2.2732 21.1453 3.37491 21.6848 5.60264 21.8426C7.20376 21.9372 11.1878 22 15.0037 22C18.8108 22 22.793 21.937 24.3795 21.8437C26.6277 21.6849 27.7293 21.1445 28.67 19.4263ZM24.2078 2.90663C25.5974 2.98851 25.855 3.11444 26.2954 3.91825C26.9366 5.038 27.2727 7.22935 27.2727 11.0115C27.2727 14.7652 26.9348 16.9686 26.2984 18.0689C25.8565 18.8752 25.6006 19.0007 24.2047 19.0993C22.703 19.1877 18.7595 19.25 15.0037 19.25C11.2393 19.25 7.29374 19.1877 5.77777 19.0983C4.3991 19.0006 4.13952 18.8735 3.70736 18.092C3.06663 16.9654 2.72727 14.7496 2.72727 10.9962C2.72727 7.24486 3.06483 5.04129 3.70214 3.9097C4.14102 3.11612 4.40242 2.9886 5.77785 2.90742C7.2342 2.8079 10.9694 2.75 15.0037 2.75C19.0291 2.75 22.7626 2.80791 24.2078 2.90663ZM12.2727 6.875L19.0909 11L12.2727 15.125V6.875Z" fill="#B2B2B2"/>
</svg>
